<svg width="24" height="24" viewBox="0 0 24 24" fill="none" xmlns="http://www.w3.org/2000/svg">
<rect width="24" height="24" fill="currentColor" fill-opacity="0.01"/>
<path fill-rule="evenodd" clip-rule="evenodd" d="M12 20C16.4183 20 20 16.4183 20 12C20 7.58172 16.4183 4 12 4C7.58176 4 4.00003 7.58172 4.00003 12C4.00003 16.4183 7.58176 20 12 20ZM12 22C17.5229 22 22 17.5228 22 12C22 6.47715 17.5229 2 12 2C6.47719 2 2.00003 6.47715 2.00003 12C2.00003 17.5228 6.47719 22 12 22Z" fill="currentColor"/>
<path fill-rule="evenodd" clip-rule="evenodd" d="M10 7.5C10 7.22386 10.2239 7 10.5 7H11.5C11.7762 7 12 7.22386 12 7.5V12H15.5C15.7762 12 16 12.2239 16 12.5V13.5C16 13.7761 15.7762 14 15.5 14H11C10.4477 14 10 13.5523 10 13V7.5Z" fill="currentColor"/>
</svg>
