<svg width="24" height="24" viewBox="0 0 24 24" fill="none" xmlns="http://www.w3.org/2000/svg">
<g clip-path="url(#clip0_3781_26699)">
<path d="M7.12583 1.58392C9.4722 0.485988 12.1212 0.212404 14.6424 0.807557C17.1635 1.4028 19.4098 2.832 21.0174 4.86322C22.6251 6.8946 23.4998 9.40936 23.4998 11.9999V12.9999C23.4998 14.1934 23.0254 15.3377 22.1815 16.1816C21.3376 17.0255 20.1933 17.4999 18.9998 17.4999C17.8064 17.4999 16.6621 17.0255 15.8182 16.1816C15.7795 16.1429 15.743 16.1023 15.7059 16.0624C14.7282 16.9548 13.4279 17.4999 11.9998 17.4999C8.96235 17.4998 6.49985 15.0374 6.49985 11.9999C6.49988 8.96245 8.96238 6.50002 11.9998 6.49994C12.9893 6.49994 13.9174 6.76231 14.7196 7.21966C14.983 6.78835 15.4575 6.49999 15.9998 6.49994C16.8283 6.49994 17.4998 7.17154 17.4998 7.99994V12.9999C17.4998 13.3977 17.6581 13.7792 17.9393 14.0605C18.2206 14.3418 18.6021 14.4999 18.9998 14.4999C19.3977 14.4999 19.7791 14.3418 20.0604 14.0605C20.3417 13.7792 20.4998 13.3978 20.4998 12.9999V11.9999C20.4998 10.0852 19.8532 8.226 18.6649 6.72455C17.4767 5.22339 15.8163 4.1674 13.953 3.72748C12.0895 3.2876 10.1316 3.48925 8.39731 4.30072C6.66317 5.1122 5.25363 6.48575 4.39731 8.19818C3.54101 9.91079 3.2882 11.8629 3.67954 13.7372C4.07089 15.6115 5.08355 17.2994 6.55356 18.5263C8.02356 19.753 9.86517 20.4472 11.7791 20.497C13.6932 20.5467 15.5677 19.9485 17.0995 18.7997C17.7621 18.3027 18.7029 18.437 19.2 19.0995C19.6971 19.7622 19.5629 20.703 18.9002 21.2001C16.8278 22.7545 14.2907 23.5633 11.701 23.496C9.11146 23.4287 6.62054 22.4888 4.63169 20.829C2.64285 19.1692 1.27252 16.8863 0.743013 14.3505C0.213579 11.8148 0.555339 9.17434 1.71372 6.85736C2.87224 4.54031 4.77948 2.68189 7.12583 1.58392ZM11.9998 9.49994C10.6192 9.50002 9.49988 10.6193 9.49985 11.9999C9.49985 13.3806 10.6192 14.4999 11.9998 14.4999C13.3806 14.4999 14.4998 13.3806 14.4998 11.9999C14.4998 10.6193 13.3805 9.49994 11.9998 9.49994Z" fill="black"/>
</g>
<defs>
<clipPath id="clip0_3781_26699">
<rect width="24" height="24" fill="white"/>
</clipPath>
</defs>
</svg>
