<svg width="14" height="14" viewBox="0 0 14 14" fill="none" xmlns="http://www.w3.org/2000/svg">
<path d="M4.15672 0.923957C5.52544 0.283494 7.07068 0.123903 8.54141 0.471076C10.012 0.818299 11.3224 1.652 12.2602 2.83688C13.198 4.02185 13.7082 5.48879 13.7082 6.99996V7.5833C13.7082 8.27949 13.4315 8.94697 12.9392 9.43925C12.4469 9.93152 11.7794 10.2083 11.0832 10.2083C10.3871 10.2083 9.71954 9.93152 9.22728 9.43925C9.20473 9.4167 9.18341 9.39303 9.16177 9.36976C8.59144 9.89033 7.83294 10.2083 6.9999 10.2083C5.22803 10.2082 3.79157 8.77185 3.79157 6.99996C3.79159 5.2281 5.22805 3.79168 6.9999 3.79163C7.57711 3.79163 8.11847 3.94468 8.58641 4.21147C8.74008 3.95987 9.01686 3.79166 9.33324 3.79163C9.81648 3.79163 10.2082 4.1834 10.2082 4.66663V7.5833C10.2082 7.81533 10.3005 8.03786 10.4646 8.20195C10.6287 8.36602 10.8512 8.45827 11.0832 8.4583C11.3153 8.4583 11.5378 8.36603 11.7019 8.20195C11.866 8.03786 11.9582 7.81536 11.9582 7.5833V6.99996C11.9582 5.88302 11.581 4.7985 10.8878 3.92265C10.1947 3.04698 9.22614 2.43098 8.13923 2.17436C7.05219 1.91777 5.91006 2.0354 4.89842 2.50875C3.88684 2.98212 3.06461 3.78336 2.56509 4.78227C2.06558 5.7813 1.91811 6.92003 2.14639 8.01339C2.37468 9.10674 2.96539 10.0913 3.8229 10.807C4.68041 11.5226 5.75467 11.9276 6.87116 11.9566C7.98766 11.9856 9.08115 11.6366 9.97468 10.9665C10.3612 10.6766 10.91 10.7549 11.2 11.1414C11.4899 11.528 11.4117 12.0768 11.0251 12.3667C9.81619 13.2734 8.33625 13.7453 6.82559 13.706C5.31501 13.6667 3.86197 13.1185 2.70181 12.1503C1.54166 11.182 0.742296 9.85035 0.433417 8.37114C0.12458 6.89196 0.32394 5.3517 0.99966 4.00013C1.67547 2.64852 2.78802 1.56444 4.15672 0.923957ZM6.9999 5.54163C6.19454 5.54168 5.54159 6.1946 5.54157 6.99996C5.54157 7.80535 6.19453 8.45825 6.9999 8.4583C7.80532 8.4583 8.45824 7.80538 8.45824 6.99996C8.45822 6.19457 7.80531 5.54163 6.9999 5.54163Z" fill="black"/>
</svg>
