<svg width="24" height="24" viewBox="0 0 24 24" fill="none" xmlns="http://www.w3.org/2000/svg">
<path d="M11 5C11.5523 5 12 5.44772 12 6C12 6.55228 11.5523 7 11 7H5C4.73478 7 4.4805 7.10543 4.29297 7.29297C4.10543 7.4805 4 7.73478 4 8V19C4 19.2652 4.10543 19.5195 4.29297 19.707C4.48051 19.8946 4.73478 20 5 20H16C16.2652 20 16.5195 16.707 19.707C16.8946 19.5195 17 19.2652 17 19V13C17 12.4477 17.4477 12 18 12C18.5523 12 19 12.4477 19 13V19C19 19.7957 18.6837 20.5585 18.1211 21.1211C17.5585 21.6837 16.7957 22 16 22H5C4.20435 22 3.44152 21.6837 2.87891 21.1211C2.3163 20.5585 2 19.7956 2 19V8C2 7.20435 2.3163 6.44152 2.87891 5.87891C3.44152 5.3163 4.20435 5 5 5H11ZM21 2C21.0563 2 21.1112 2.00571 21.165 2.01465C21.1738 2.01611 21.1827 2.01686 21.1914 2.01855L21.2012 2.02051C21.211 2.02252 21.2207 2.02504 21.2305 2.02734C21.251 2.0322 21.2717 2.0368 21.292 2.04297C21.3408 2.05783 21.3873 2.0778 21.4326 2.09961C21.4466 2.10634 21.4609 2.11269 21.4746 2.12012C21.6203 2.19887 21.7441 2.31255 21.835 2.4502C21.8597 2.48768 21.8812 2.52662 21.9004 2.56641C21.9222 2.61159 21.9412 2.65838 21.9561 2.70703C21.9623 2.72732 21.9668 2.74799 21.9717 2.76855C21.9893 2.84294 22 2.92022 22 3V9C22 9.55228 21.5523 10 21 10C20.4477 10 20 9.55228 20 9V5.41406L10.707 14.707C10.3165 15.0976 9.68349 15.0976 9.29297 14.707C8.90244 14.3165 8.90244 13.6835 9.29297 13.293L18.5859 4H15C14.4477 4 14 3.55228 14 3C14 2.44772 14.4477 2 15 2H21Z" fill="black"/>
</svg>
